<svg width="41" height="23" viewBox="0 0 41 23" fill="none" xmlns="http://www.w3.org/2000/svg">
<path d="M5.12 6.78388C5.35467 5.71722 5.504 4.81055 5.568 4.06388C5.65333 3.31722 5.67467 2.71988 5.632 2.27188C5.58933 1.80255 5.48267 1.47188 5.312 1.27988C5.16267 1.06655 4.94933 0.959881 4.672 0.959881L4.864 -0.000118256H12.096L11.872 0.959881C11.5947 0.959881 11.328 1.06655 11.072 1.27988C10.8373 1.47188 10.592 1.80255 10.336 2.27188C10.1013 2.71988 9.86667 3.31722 9.632 4.06388C9.41867 4.81055 9.19467 5.71722 8.96 6.78388L8.032 11.1999L12.704 6.43188C12.9173 6.21855 13.184 5.93055 13.504 5.56788C13.824 5.20522 14.1547 4.82122 14.496 4.41588C14.8373 4.01055 15.1573 3.60522 15.456 3.19988C15.7547 2.79455 15.9787 2.43188 16.128 2.11188C16.2773 1.77055 16.3413 1.49322 16.32 1.27988C16.2987 1.06655 16.128 0.959881 15.808 0.959881L16.032 -0.000118256H21.824L21.632 0.959881C21.1413 0.959881 20.6293 1.06655 20.096 1.27988C19.5627 1.47188 18.9547 1.82388 18.272 2.33588C17.5893 2.82655 16.8 3.49855 15.904 4.35188C15.008 5.18388 13.952 6.23988 12.736 7.51988L11.84 8.44788L16.032 18.5919C16.3947 19.4665 16.704 20.1385 16.96 20.6079C17.216 21.0559 17.4293 21.3759 17.6 21.5679C17.7707 21.7599 17.8987 21.8665 17.984 21.8879C18.0907 21.9092 18.176 21.9199 18.24 21.9199L18.048 22.8799H16.48C15.84 22.8585 15.2747 22.7625 14.784 22.5919C14.2933 22.3999 13.8667 22.1759 13.504 21.9199C13.1627 21.6639 12.8853 21.3865 12.672 21.0879C12.4587 20.7892 12.2987 20.5119 12.192 20.2559L8.672 11.7439L7.68 12.7679L6.976 16.0959C6.76267 17.1625 6.61333 18.0692 6.528 18.8159C6.44267 19.5625 6.42133 20.1705 6.464 20.6399C6.50667 21.0879 6.60267 21.4185 6.752 21.6319C6.92267 21.8239 7.14667 21.9199 7.424 21.9199L7.232 22.8799H6.55651e-07L0.224001 21.9199C0.778667 21.9199 1.29067 21.4825 1.76 20.6079C2.22933 19.7332 2.688 18.2292 3.136 16.0959L5.12 6.78388ZM24.2763 6.78388C24.5109 5.71722 24.6603 4.81055 24.7243 4.06388C24.8096 3.31722 24.8309 2.71988 24.7883 2.27188C24.7456 1.80255 24.6389 1.47188 24.4683 1.27988C24.3189 1.06655 24.1056 0.959881 23.8283 0.959881L24.0203 -0.000118256H32.1483C34.9429 -0.000118256 36.9909 0.490548 38.2923 1.47188C39.5936 2.45322 40.0523 3.85055 39.6683 5.66388C39.4123 6.92255 38.8469 7.97855 37.9723 8.83188C37.1189 9.68522 35.9669 10.3252 34.5163 10.7519C35.3056 10.9439 35.9883 11.2105 36.5643 11.5519C37.1616 11.8719 37.6416 12.2772 38.0043 12.7679C38.3669 13.2585 38.6016 13.8345 38.7083 14.4959C38.8149 15.1572 38.7829 15.9039 38.6123 16.7359C38.3563 17.8879 37.9189 18.8585 37.3003 19.6479C36.6816 20.4159 35.9029 21.0452 34.9643 21.5359C34.0469 22.0052 32.9909 22.3465 31.7963 22.5599C30.6016 22.7732 29.3109 22.8799 27.9243 22.8799H19.1563L19.3803 21.9199C19.9349 21.9199 20.4469 21.4825 20.9163 20.6079C21.3856 19.7332 21.8443 18.2292 22.2923 16.0959L24.2763 6.78388ZM27.3163 10.3359H30.2603C31.0496 10.3359 31.7536 10.2079 32.3723 9.95188C32.9909 9.67455 33.5243 9.31188 33.9723 8.86388C34.4203 8.41588 34.7829 7.91455 35.0603 7.35988C35.3376 6.80522 35.5403 6.23988 35.6683 5.66388C35.7963 5.08788 35.8176 4.52255 35.7323 3.96788C35.6683 3.39188 35.4869 2.89055 35.1883 2.46388C34.8896 2.01588 34.4736 1.65321 33.9403 1.37588C33.4069 1.09855 32.7456 0.959881 31.9563 0.959881H29.3643L27.3163 10.3359ZM24.8523 21.9199H28.1483C29.7483 21.9199 31.1349 21.4719 32.3083 20.5759C33.4816 19.6585 34.2389 18.3785 34.5803 16.7359C34.7509 15.9252 34.7616 15.1892 34.6123 14.5279C34.4843 13.8452 34.2176 13.2692 33.8123 12.7999C33.4069 12.3305 32.8843 11.9679 32.2443 11.7119C31.6043 11.4559 30.8789 11.3279 30.0683 11.3279H27.1563L24.8523 21.9199Z" fill="black"/>
</svg>
