<?xml version="1.0" encoding="UTF-8"?>
<svg id="Layer_2" data-name="Layer 2" xmlns="http://www.w3.org/2000/svg" viewBox="0 0 1900 108.68">
  <g id="Layer_1-2" data-name="Layer 1">
    <g>
      <polygon points="948.19 108.68 948.51 107.38 948.84 108.68 948.19 108.68"/>
      <rect x="1686.72" y="90.25" width="1.3" height="3.26" transform="translate(1593.28 1779.13) rotate(-89.92)"/>
      <path d="M549.19,89.94c.09.1.58,3.08-.96,2.57-2.25-.75.17-3.47.96-2.57Z"/>
      <path d="M1204.22,95.76c.1.14-.38,3.35-1.29,3.22-1.22-1.76.02-5.06,1.29-3.22Z"/>
      <path d="M378.94,16.92h-.65c.16,0,.4-.24.65,0Z"/>
      <path d="M920.25,93.81h.65c-.18.07-.23.98-.65,0Z"/>
      <path d="M452.37,12.39h-.65l.32-1.3c.67-.02.17,1.25.32,1.3Z"/>
      <path d="M1045.67,91.88c0,1.93-.65,1.87-.65,0,.21.03.44-.04.65,0Z"/>
      <path d="M452.37,12.39c.39.14,5.04,1.51,5.19,1.29.58-.81-1.72-2.93.32-2.58l.98,3.22,3.26-3.22v2.58s1.64-1.94,1.64-1.94l1.61,1.94,1.3-1.94c.24,4.09.03.38,1.94.66.12.02.43,2.25,1.31,1.93.18-.06.79-2.68,1.97-3.22,2.06-.95-.73,3.02,2.58,0-2.04,6.38,1.53.56,4.23-.01.58-.12,3.04,3.04,4.86.01-.88,4.18-.17,2.27,1.64.01-.82,3.7.6,0,1.29,2.58-.73-2.36.14-2.97,2.6-2.58.7.11.14,1.86.33,1.92.69.24,1.3-3.76,2.27.66,2.01-3.82,2.82-1.09,4.55-1.28.29-.03.28-1.27.34-1.27,2.34.13.75,1.19,1.6,1.26.64.06.06-1.48.64-1.31,2.24.7,1.5,2.53,1.64,2.59.77.31,1.05-1.89,1.74-1.98,1.91-.27,2.97,1.36,3.13,1.32.66-.13-.66-1.71-.33-1.92.39-.25,8.24-.07,9.32-.02.44.02.45,1.27.72,1.29,1.44.13,5.3-3.44,5.88,1.31.05-6.89,1.95-.77,2.28-.65.91.35,3.48-4.46,4.53,0l.02-3.22c2.04,3.57,6.15-.05,6.81-.01.13,0,1.67,1.73,1.97,1.82,1.33.41,3.06-2.17,3.24,1.43.91-.64-.26-3.64.65-3.89.6-.17.24,2.04.94,2.34,1.23.53,4.47-1.03,6.23.88l-1-1.26,3.89,1.28c-1.55-2.71,2.45-2.81,2.6-2.58.41.63-1.79,2.88.32,2.59.34-5.07,7.44-1.47,9.07-1.24,1.84.26,4.09-.73,4.59-.69.69.06.13,1.85.32,1.93,1.03.4.99-2.52,3.5-2.57.2,0,2.81,2.54,3.01,2.56,1.15.15-.23-1.35,2.29-1.33,1.44.01.66,1.38,1.27,1.35.29-.02,3.83-2.28,5.32-2.48,1.17-.16,1.84,1.64,2.46,1.65,1.92.04,2.45-3.2,2.61-3.07,1.25.96-1.79,6.23,4.87.01l.32,3.86c2.73-.46,2.67-2.48,2.94-2.57.33-.1,6.52-.84,6.81-.65.65.43.63,6.3,5.2-.65l.34,2.59c-.85-1.3,5.54-2.18,5.84-1.94.2.17.26,5.68.66,0,2.47.55-.41,6.18,2.92,0l-.32,2.59c2.02.86.97-2.21,1.62-1.94.81.34-.12,2.07.65,1.94.88-.15.85-2.43,1.07-2.53.37-.16,7.63-.15,8.02-.07.94.22-.76,1.89,0,1.93.7.04,7.39-4.78,6.5.65,2.17-5.38,1.69-.33,2.6.01,2.02.76,2.22-7.39,2.29,0,2.02-7.2,4.13,4.18,3.9-2.58,3.32,4.95,2.19,1.07,3.59.62,1.76-.57,1.3,1.33,2.57,1.37,2.15.07,1.55-2.21,2.93-1.35.14.09-.14,1.88,0,1.94,3.29,1.32,1.78-2.35,1.95-2.59.25-.33,9.03,1.85,4.22,2.59l5.83-1.96-.96,1.94c3.29.82,2.87-5.97,3.25,0,1.38.02,1.07-2.8,1.62-2.59.73.27.16,1.92.33,2.59,1.86-5.94.31,2.46,5.84-1.93-1.97,4.94,4.02.14,4.87-.02.14-.03,1.81,1.96,1.95,1.95.46-.05,1.36-2.08,2.6-1.95.8.08-.45,2.72,1.63,1.95.11-4.68,2.06-.62,2.27-.63,2.51-.16.67-1.15,2.91-1.28.15,0-.29,1.27.34,1.26.3,0,1.41-1.86,2.05-1.88,1.31-.04,2.12,1.86,2.51,1.88.69.04-.48-1.4,1.94-1.29.53.02.75,1.77,1.27,1.88,1.43.31,2.48-1.89,2.64-1.89,1.07-.01,1.44,2.35,4.51,1.35.75-.24.22-1.95.36-1.99.36-.09,6.36.55,7.41.66.14.01,1.45,2.17,2.01,1.91,1.1-.5.86-2.49.98-2.57.42-.26,1.64,1.65,1.93,1.29.45-.56.11-5.49.66,0l2.59-1.94c-1.33,2.09,2.02,3.54,2.94,3.21.69-.24-.66-1.72-.33-1.92,1.98-1.22,1.19,1.9,1.3,1.93,4.19,1.06,5.8-3.3,6.18-3.22,2.24.46-1.83,5.49,3.56-.65l-.32,3.24c1.91-5.13,1.91-1.26,3.22-1.27,5.88,0,12.61,1.11,16.93,1.28,1.08.04,1.48-1.37,2.58-1.33.8.03-.31,1.25.98,1.3.1,0-.3-1.33.34-1.31.97.04,1.51,1.12,2.84,1.16,1.87.06,3.64-1.13,5.52-1.12.62,0-.28,1.13,1.37,1.28.57.05-.02-1.97,1.3-1.31.73.37.15,1.86.34,1.94.84.36,1.19-1.9,1.31-1.93,2-.47.56,1.75,2.57,1.28.09-.02.23-1.57.65-1.64,2.5-.44,3.98.2,4.23.19,2.78-.1,2.37-1.13,2.61-1.12.99.02,5.96,1.44,7.43,1.64,1.02.14,1.51-1.36,2.64-1,.14.04-.15,1.83,0,1.94,1.46,1.09,1.08-2.07,3.27-1.73,1.42.22,1.05,2.19,1.92,1.73.21-.11-.46-1.68.38-1.94.55-.17,4.99,1.6,5.81,1.69.45.05,1.29-1.15,1.93-1.07.32.04.23,1.47,2.22,1.66,8.09.8,4.88-1.39,5.27-1.63,2.66-1.61,1.72,3.1,3.89,1.29.32,1.34.62,0,.65,0,1.51-.31,5.96-2.09,6.49-1.94.13.04-.11,1.86.01,1.94.68.43,1.07-1.81,1.58-1.84,2.67-.19,3.74,1.82,3.95,1.85,2.3.37,1.29-1.35,1.93-1.31,1.09.07.04,3.84,1.94,0,.48,3.56,1,.83,3.25.96,2.1.12,15.22,1.36,15.92.98.29-.16-1.23-1.67-.33-1.93,1.73,2.11,8,1.94,11.01,1.94.55,0,.1-1.31.69-1.3.17,0,.73,1.2,1.84,1.22.52,0,1.06-1.24,1.73-1.22.15,0-.36,1.91.33,1.95.59.03.06-1.3.75-1.27,3.03.14.6,1.11,2.82,1.25.11,0-.3-1.33.33-1.3s.18,1.17.39,1.17c3.01.03,4.27-1.38,7.07.13l-1.29-1.28c4,1.44,10.3.15,15.65.17,1.54,0,3.74-.07,4.16-.06,1.67.02,4.33,1.18,4.56,1.19.57,0,0-1.3.63-1.3.29,0,.86,1.29,1.62,1.29.16,0-.68-1.38.98-1.3.57.03.23,1.32.66,1.34,1.12.04,2.38-1.34,2.6-1.33.72.04-.09,1.25.64,1.3.77.05-.32-1.26.97-1.3.16,0-.37,1.83.33,1.94s.11-1.85.33-1.95c1.58-.77,1.2,1.36,1.71,1.32,2.45-.2,6.95-1.87,9,.64.26-2.2,2.77-.22,5.2-.14,1.06.04,2.53-1.71,3.57-1.16.4.21-1.16,1.69-.32,1.94,1.84.55,3.06-1.95,3.25-1.95.36,0,4.6,1.55,6.69,1.57,1.44.01,2.89-1.56,3.06-1.56.5,0,.2,1.31.73,1.31,2.97.03,5.99.5,8.36.48.39,0,.3-1.11.7-1.12,1.73-.01,7.34,1.32,7.73,1.28.7-.07.11-1.8.4-1.88,2.62-.78,1.71,1.83,1.89,1.87,1.58.44,4.82-1.32,5.52-1.32.51,0,.05,1.3.66,1.33,1.84.08.24-1.31,1.61-1.3.13,0-.31,1.27.33,1.28.24,0,.76-1.31,1.95-1.31.16,0,2.44,1.98,2.6,1.96.68-.06.44-2.12,1.95-1.95,1.86.2,1.2,2.26,2.26,1.95.11-.03.36-2.19,1.31-1.93.16.04-.34,1.75.3,1.87,2.02.39,5.92.79,4.58-1.87,2.21,3.96,5.73-.67,10.42.71.77.23-.14,1.93.63,1.88.79-.05-.16-1.85.66-1.96.94-.12,2.21,1.12,3.25,1.05.59-.04,1.13-1.03,1.29-1.04.71-.05-.07,1.35.65,1.3.56-.04.12-1.29.75-1.31,4.18-.09,4.8,1.29,5.1,1.3.7.04.15-1.89.33-1.95,1.08-.34,1.28,4.62,2.92-.65l1.95,2.6,3.89-1.83c1.19-.1,5.17,1.2,5.5,1.15.17-.02.8-2.57,2.94-1.92.92.28-.61,1.65-.31,1.94,1.24,1.25,2.14-1.31,2.27-1.3.78.09-.32,1.22.97,1.3.11,0-.3-1.33.33-1.28.59.05.75,1.88,1.3,1.93,1.77.16,1.42-4.25,2.92,0-1.3-3.46,7.7-.4,10.07.04.56.11-.11-1.52.98-1.33.29.05-1.32,2.55,3.9,1.94.1-.01-.09-1.93.01-1.95.59-.09,1.23,1.27,1.72,1.2,2.48-.32,6.62-2.67,7.36.73.81-5.25,1.77-.6,2.29-.64.22-.02.33-2.28,3.52-1.2.2.07-.02,1.79.08,1.83,1.87.71,2.43-1.89,2.59-1.93,1.4-.31.46,2.07.96,1.94,1.9-.46.55-1.66,1.04-1.86,2.67-1.1,1.19,1.71,1.55,1.84.28.1,5.12-1.34,5.84-1.28l-.32,1.29c3.21-3.84,4.03,3.66,6.18-1.94l.98,1.94c2.15-2.9.18.42,2.59.01.21-.03-.39-1.85.33-1.95.61-.09.24,1.31.33,1.29,2.1-.27,1.12-1.17,1.61-1.16,2.04.04,6.33,1.77,7.8,1.84.4.02-.15-1.25,1.97-1.17.55.02-.17,1.11.96,1.14.13,0-.31-1.32.34-1.3,1.71.05.77,1.29.97,1.3,1.27.03.19-1.31.97-1.3.58,0,.2,1.31.64,1.32,2.48.06,1.27-1.33,1.96-1.32.65.01.2,1.3.33,1.3,1.28.03.2-1.32.97-1.3.73.02-.08,1.29.65,1.31.72.02-.07-1.36.66-1.31,1.76.12.23,1.27.62,1.28,4.74.09,5.85-.78,9.44-1.27l-1.29,1.28c2.96-1.63,2.68-.12,2.89-.12,4.57-.04,5.99-1.12,10.1.13l-.34-1.27c2.88,2.21,4.29-.03,4.57-.03.25,0,2.02,1.67,4.64,1.71,12.06.16,25.18-.57,36.2-.4.62,0,.2-1.32.75-1.31.18,0,.7,1.53,3.21,1.59,8.41.18,18.64-.59,25.98-.31,9.4,1.36,21,2.55,31.17,2.57.67,0-.08-1.25,1.04-1.25.16,0-.38,1.66.33,1.94.2.08.6-1.8,3.89-1.81,2.23,0,6.66-.13,9.76-.14.57,0,.13,1.31.64,1.31,1.2,0,1.68-1.31,1.95-1.31.23,0,.91,1.21,3.91,1.18.49,0,.03-1.19.63-1.19.27,0,1.04,1.29,1.31,1.29.72,0-.07-1.31.65-1.3s-.08,1.3.66,1.31c1.75.02.06-1.3.62-1.28,1.45.03,5.04,1.19,6.57,1.21.47,0-.03-1.25.61-1.23,1.86.04.14,1.29.31,1.29,3.46.11,8.89-1.22,9.47.02l52.02,1.91,44.11-1.92c.41,2.92,1.75-.87,3.57,0,.11.05-.09,1.94,0,1.94,1.49.06,3.56-.18,5.78-.09.18,0-.22-1.24.39-1.21s.07,1.18.63,1.18c5.28,0,12.11-1.45,17.26-1.56,15.18-.31,32.4-.22,46.19-.56,3.18-.08,27.06-1.46,27.88-.34.33.45-1.17,2.16-.33,2.59.87-3.14,3.61,1.87,2.92-3.25l35.75-.65c-1.1,5.06,3.15-.55,5.85.66.36.16-2.11,2.67,1.94,1.28-4-3.59,8.05-1.99,10.4-1.28l-1.29,1.28,4.21,1.31-1.61-2.58c4.81-.03,9.19-2.37,13.91-.74.63.22.27,1.92.39,2.01.24.19,2.18-3.19,5.19-1.28-2.68,1.18,1.78,4.67.66,0l.65,2.59c1.82-1.79,20.14.86,20.78-.01.41-.56-.8-2.44-.64-2.58.41-.34,10.9-1.1,8.45,2.58l2.59-1.94c-2.72,3.58,3.03,2.15,3.26,1.93.15-.15-1.05-2.02-.64-2.57.11-.16,3.77-.16,3.89,0,.34.43-.81,2.86,1.07,3.79.97.48,7.07.03,8.9.1.62.02.21-1.34.76-1.31.31.02,3.35,1.84,5.27,1.94,10.77.56,19.99.48,30.83,2.25,1.68.27,3.48,1.51,4.2,1.62.64.1.65-2.23,1.6-1.92.1.03.09,1.63,1.11,1.8,4.73.81,10.04,2.79,14.16,3.38,13.63,1.94,33.56.59,48.02,1.25.5.02.21-1.29.73-1.26.34.02,4.78,2.3,6.35,2.37,31.56,1.35,67,2.61,97.02,2.12,4.15-.07,2.7-.61,2.9-.61,1.17,0,.31,1.31,1,1.31,1.91,0,3.88-.11,5.83-.11.51,0,.02-1.23.63-1.22s.04,1.27.71,1.29c5.89.2,14.26-2.44,17.86,3.52,4.43,7.35-1.24,12.95.72,18.67.16.47,6.09,6.98,5.75,2.38.21,2.52,5.15,2.26,7.43,1.95.77-.1.2-1.93.36-1.95,1.13-.13.36,1.4,1,1.34,1.65-.17,2.73-.95,5.04-1.07,5.01-.28,11.47,1.09,15.73-.25l-.27,1.2c6.73,2.97,15.21-.69,20.76,5.03,8.83,9.11-.32,21.18-5.49,29.26-.4.62.71,2.26,0,3.28-.56.79-14.2,2.5-14.66,1.92-.28-.35.27-2.79-.01-3.23-.33-.51-11.42-1.4-12.03-1.36-1.51.1-1.38,2.01-1.94,2.01-.34,0,.54-1.83-5.24-2.28-3.45-.27-7.91,1.78-9.72,1.71-9.23-.33-23.65-3.99-33.31-4.49-19.14-.99-38.38.76-56.99.26-2.51-.07-4.6-2.7-5.19-2.75-1.19-.1-3.68,2.38-3.91,2.37-.5-.01-.71-2.22-2.56-2.29-2.28-.08-4.45.98-6.47.92-10.31-.31-22.35-1.86-32.55-1.84-1,0-1.84,1.28-1.96,1.28-.71.02.07-1.35-.65-1.3-.61.04-.06,1.17-.73,1.27-3.57.52-9.45-2.49-7.4,3.9-1.73-.31-.72-4.32-.96-4.5-.14-.11-2.89,1.77-2.91,1.94-.24,1.45,4.47,2.29.96,3.2-1.03.27-2.34-2.68-2.91-2.89-2.21-.81-5.62-.29-8.15-2.24,1.11,5.16-2.51,1.13-6.38,2.68-1.44.58-.97,2.37-1.1,2.47-.66.47-1.71-3.65-3.58-3.88-.3-.04-.17,1.45-1.26,1.37-2.14-.14-3.53-1.09-4.58-1.18-.62-.05-1.69,1.78-1.94,1.73-.86-.17-1.01-2.59-1.58-2.94-1.75-1.04-3.47,1.64-3.67,1.65-2.15.12-.82-1.15-3.2-1.3-.16,0-.38,1.34-.69,1.35-2.73.12-1.74-2.63-2.56-2.63-.31,0-.39,1.66-2.13,1.56-4.04-.22-18.43-1.46-21.43-.13-.6.27-.69,2.39-.81,2.43-.41.14-4.17-7.12-4.55,0-3.54-6.83-2.74-2.26-5.15-2.24-3.76.02-5.69-1.12-10.06.87-.66.3-.29,1.97-.39,2.02-.71.35-1.01-1.81-1.76-1.94-4.22-.75-3.31,2.26-7.97-1.29-.53,1.11.68,4.97.31,5.17-4.27,2.43.09-3.38-.98-4.53-.19-.21-4.65,1.32-5.55,1.19-13.31-1.95-27.23-2.81-40.94.1-.27.06-.23-1.39-.6-1.3-7.76,1.93-5.2,5.5-5.87,5.83-.37.18-6.49-3.85-2.92-4.52-3.31.97-7.29-1.05-9.95-1.1-2.11-.04-20.52,1.86-21.5,2.31-.76.35,0,2.07-.71,2.03-.78-.05.21-1.71-.71-1.99-1.1-.33-4.92-.87-6.76-1.25-.11-.02.47,1.42-.65,1.29-.1-.01.1-1.9-.05-1.92-1.24-.14-9.51,3.37-10.02,3.23-.37-.1.18-2.52-5.34-3.16-6.68-.77-17.25.34-24.55.61-2,.07-6.87-1.52-8.39-1.2-1.19.25-.99,2.04-3.11,2.68-.72.22-5.76-1.32-7.87-1.24-7.5.28-12.66,3.49-20.59,1.64,2.41,4.46-.82,1.18-.99,1.31-.24.18,1.3,5.26-2.53,3.77-3.32-1.29,1.15-2.83.91-4.42-7.92-.84-3.8,7.49-10.38.65-.6,1.04.79,3.74.64,3.87-.28.24-2.78-.15-3.57.01,3.34-8.06-2.14-1.09-3.24-1.29-.72-.13-.89-1.94-1-1.94-.59-.02-1.46,1.59-2.9,1.35-1.63-.27-1.1-1.89-2.59-2.06-3.01-.34-5.69-.18-8.14,1.35,2.52-3.68-5.59-1.61-5.85-1.28-.14.18,1.87,3.46-.34,4.51-2.26,1.08-.65-4.18-.97-4.52-.55-.59-3.34,1.12-4.19,1-1.12-.16-4.86-.79-5.88-1.01-.7-.16-.14-1.86-.33-1.92-.85-.3-1.08,1.9-1.61,1.93-1.05.07-2.03-2.31-2.92-2.57-.19-.06-2.75,2.53-2.95,2.57-1.8.41-.42-1.81-1.3-1.94-1.38-.2-1.24,1.85-2.09,1.95-5.17.64-13.57-.21-19.31.06-15.89.73-35.23-.24-50.55,1.45-2.12.23-3.07.27-4.08,2.36-2.76-7.39-.95,1.34-3.22,1.99-3.59,1.02-3.1-1.1-2.95-3.92-2.42,7.83-4.51,1.09-5.49.8-2.22-.65-20.65-3.28-22.09-3.3-1.52-.03-3.75,1.98-5.86,1.94-31.58-.68-63.49-.17-94.9.37-5.24-5.28-12.46-.73-18.19-.74-2.85,0-7.35-1.02-11.09-1.06-1.38-.02-.66,1.37-1.25,1.36-.53,0-.54-1.76-1.27-1.77-5.33-.11-11.8.5-16.95.36-.61-.02.03-1.17-.62-1.19-.72-.02.07,1.32-.65,1.31-.24,0-1.63-1.77-4.53-1.59-1.56.1-11.95,3.71-8.14,4.8-3.91-1.36-4.19.8-6.49-2.91-.32-.51,1.82,0,1.29-.95-.67-1.19-5.72-.3-5.84,0-.11.25,2.3,4.73-1.63,3.25-.66-.25-.18-1.89-.33-1.97-.44-.23-1.6.83-1.94.66-.19-.1.42-2.1-2.28-2.58l.97,2.57-5.19-.97,1.29-.96c-2.66-1.61-7.06,1.3-7.47,1.28-.46-.02-.75-1.92-1.46-1.94-3.44-.1-2.77,1.33-3.1,1.31-.61-.04-.13-1.16-.63-1.19-3.36-.23-3.69,1.22-3.92,1.19s-3.4-1.8-4.22-1.95c0-1.93-.65-1.87-.65,0-7.58-1.23-2.16.91-2.6,1.93-.05.12-2.44.02-2.53-.07-1.32-1.26.72-3.07.58-3.15-3.63-2.03-11.81,4.82-13.98,5.09-1.81.22-3.24-3.71-5.51-.58l.64-3.23c-1.02-.1-1.09,1.99-1.62,1.95-.84-.06.37-2.17-.97-1.94l-.67,3.22c-1.18-1.58-3.68-.69-4.53,0-1.01-8.69-3.07,7.64-3.91-2.58-2.16,1.01-8.7,7.13-5.2,1.3-2.14-1.52-8.33,2.74-8.77,2.56-1-.42-.88-2.48-1.05-2.52-4.43-1.12-7.89,3.5-7.39-1.99-.43,7.35-3.14,5.45-2.93-.63-2.65-.12-.12,5.45-1.62,5.15-1.21-.24-.86-3.11-.98-3.22-.1-.09-1.59.92-2.59.65-1.24,3.25-2.06,1.59-1.94-1.29,1.4.79-.18.72,1.94,1.29,2.13-5.57-3.26-.05-5.2-2.58,1.61,1.93-.2,3.72-1.3,2.58-.46-.47,1.09-3.11-1.29-2.59.29,6.69-5.99,3.93-5.86,1.93l-1.31,3.24c-1.01-1.89-4.62-5.13-3.24-1.3-2.2.58-.71-1.61-1.67-1.95-2.15-.76-2.72,1.96-2.9,1.95-.88-.03-1.13-1.83-3.41-1.84-1.47,0-3.41,4.58-2.43-1.39l-1.28,1.93-.65-2.58-.65,2.58-.65-3.22-2.27,4.52c-1.31-6.85-4.25-6.32-4.23-.3-4.64-.17-5.84,1.15-4.56-4.21-3.29,8.35-2.5,1.96-3.57,1.95-.47,0-3.06,2.64-3.26,2.58-2.06-.62.12-1.75-.31-1.94-3.11-1.4-8.04,1.89-5.86-2.59-2.09,1.03.01,2.16-2.59,3.23h-.65c-3.72-5.05-2.87-1.45-4.55-1.94-.21-.06.44-1.66-.37-1.94-3.64-1.25-2.7,5.6-8.72,3.87,2.43-1.43-.11-1.3-.01-3.87l-1.61,1.94-.97-1.94c-1.37,6.01-2.27.06-2.93.01-.63-.05-.88,1.92-.99,1.92-1.31.01.14-1.57-1.57-1.26-1.83.34-4.73,4.62-5.9-.68-.88,3.5-3.94.58-6.16,3.88.62-6.5-1.31-2.63-2.6-3.22-.13-.06.11-1.9-.01-1.95-.93-.35-3.51,3.36-4.35,3.75-2.08.98-5.24-1.4-5.39-1.16-.62.99,1.39,2.8-1.65,2.63-.92-.05-4.53-5.12-2.9-.04h-11.05c-.16,0,.12-2.72,0-3.23-1.74,2.89-2.3,5.72-4.21,1.29l-1.62,1.93c-1.34-7.2-1.47-1.96-3.34-1.73-5.21.63-10.81-3.43-11.6,1.08.04-5.83-1.1.05-2.24.47-.39.14-7.13-.08-8.29-.19-1.35-.13-.94-1.52-1.5-1.58-.67-.07-.2,1.95-.33,1.95-.81,0-1.12-1.3-1.93-1.29-.15,0,.77,1.54-1.3,1.3-.19-.02.37-1.92-.33-1.95s-.06,1.78-.37,1.88c-4.87,1.63-3.6-1.8-3.86-1.87-.93-.24-.36,2.19-2.59,1.29-.22-.09.39-1.96-.33-1.95-.55,0,.65,2.86-4.5,2.45-.93-.07-.77-1.75-1.35-1.8-.17-.02-1.61,2.48-2.92,1.95-.08-.03.19-1.72-.1-1.8-2.37-.66-6.15-2.15-5.11,1.8-1.04.31-.58-1.3-.65-1.28-1.42.34-9.66.53-10.42.31-2.44-.7-.8-2.49-1.28-2.91-.44-.39-12.27,1.04-8.44,3.88-2.67,1.16-5.2-2.55-5.52,0l-.33-3.22c-2.24.94-1.93,4.63-5.82,3.23-.39-.14.17-2.66-1.65-2.61-1.19.03-1.97,1.77-2.75,1.86-3.79.42-7.37.58-9.91-1.84l-.65,2.58c1.22-2.98-2.32-2.86-4.55-2.57-.21.03.36,1.77-.32,1.92-1.02.22-3.68-2.55-3.91-2.57-.16-.01-.68,3.05-1.95,2.57-1.05-.4-.65-2.18-1.31-2.57-.5-.3-2.99,2.55-3.93,2.56-1.41,0-.99-2.93-2.56-2.54-.9.22.62,1.77.33,1.93-1.09.58-2.01-1.47-2.59-1.29-.19.06.39,1.81-.33,1.95-.57.1-.34-2.53-1.3-2.58-.86-.04-.69,2.26-1.31,2.57-.7.35-1.78-2.33-4.57-2.48-.52-.03-7.8,1.62-10.26,1.83-.66.06-.18,1.27-.75,1.31-.43.03-1.69-4.09-2.92-.01,1.16-1.47-5.2-3.28-5.54-3.21-.78.16,2.33,2.22-.03,3.17-.79.32-4.21-.67-2.24-2.53-2.34-.6-.91,2.29-1.31,2.58-2.35,1.71-6.45-2.75-6.81-2.59-.63.28-.35,2.46-1.31,2.57-1.11.13-1.79-5.5-3.57-.63.49-2.83-4.49-4.02-3.27,0l-1.28-1.93c-1.72,7.01-14.11-5.61-15.6,1.93,1.15-4.63-3.12-1.16-5.19-2.27-1.53-.82-1.66-3.29-2.29-3.55-.38-.16-.12,3.18-2.27.01-.86,8.33-3.19,1.4-3.58,1.26-2.98-1.04-2.03,2.12-3.29,2.52-1.04.34-14.51-1.17-17.37-1.06-.53.02-1.42,1.21-2.74,1.23-1.31.02-3.07-1.88-3.57-1.36-.26.26,1.98,6.7-2.93,0-3.15,8.14-2.17,1.51-2.93.63s-5.24,1.31-5.53,1.29c-.58-.05.11-1.23-1.26-1.33-3.41-.25-8.54,1.99-8.16-1.9-.99,3.5-4.01,1.19-4.21-1.95-1.93,5.67-12.21,2.65-17.52,2.63-.94,0-1.52,1.15-2.5,1.12-.84-.02-6.91-1.79-7.28-1.8-.43-.02-4.56,5.01-6.49-1.31-.58,2.86-1.35-.22-2.26.02-.25.07-3.28,3.39-4.56,2.57-.08-.05.17-1.66-.12-1.76-3.46-1.22.24.66-2.49.48-.2-.01.39-1.82-.33-1.95s.06,1.61-.72,2.02c-5.65,2.95-3.87-.65-4.16-.72-2.12-.49-3.44,1.91-3.65,1.91-1.64.01-4.51-1.64-5.14-1.63-1.64.02-2.09,2.64-3.22,2.31-2.1-.62-.7-3.24-1.31-3.22-.38.01-5.48,4.41-5.84,4.5-.21.05-1.4-1.24-2.06-1.17-1.76.18-5.5,3.21-2.83-1.39-2.24-.14-7.38,1.33-9.32,1.18-1.07-.08-2.52-1.82-2.7-1.81-.65.02-.7,8.05-3.25.65-4.31,6.83.17-2.11-6.44.54-.77.31,0,2.04-.71,2.04s-.06-1.64-.44-1.8c-2.08-.85-3.2,0-4.05-.16-.64-.13-.33-1.26-.4-1.27-1.12-.15-.37,1.35-.98,1.32-1.6-.06-2.15-1.28-3.53-1.31-.1,0-.27,1.77-.94,1.75-2.71-.09-2.8-2.09-5.76-1.77-.71.08-.95,1.9-1.45,1.93-.29.02-3.85-3.08-.33-3.85-2.7-1.08-4.93,2.79-7.21,2.24-2.6-.62-.47-4.24-1.57-4.2-.42.02.23,7.07-4.87,3.88-.23-.14.92-1.62.66-1.93-.66-.76-4.32,1.11-5.85-.65,3.08,4.39-8,2.21-10.72,2.52-1.7.2-5.84,2.71-6.5,2.65-2.44-.22,1.77-4.24-6.43-.03-1.3-2.58-6.57-.97-10.34-2.56-.99-.42-.06-1.77-.78-1.94-1.69-.4-.7,1.85-1,1.93-.74.19-2.58-.49-4.31.25-.37.16-4.3,5.46-1.51-.23-2.19.29-5.61,1.57-5.2-1.94l-.65,1.93c-3.51-2.49-2.42-.04-2.61-.02-2.21.2-.83-1.32-1.6-1.27-.2.01-1.8.99-3.8,1.31-.5.08-.01-3.21-3.35,2.56l.97-2.56c-2.91-.13-4.49,1.09-3.9-2.59-3.56,7.42-1.54,3.21-2.63,2.63-.73-.39-2.23.26-3.18-.13-.27-.11.56-2.9-3.93-1.86-.11.03.36,1.88-.36,1.99-.86.14-12.2.16-12.81-.02-2.14-.61-2.36-6.55-5.02-.03,1.91-7.83-2.97-.22-3.73,0-2.05.62-11.47.44-13.17-1.3.54,6.05-2.35-1.01-3.25-.64-.16.07.4,1.76-.37,1.99-3.16.94-3.67-1.39-4.18-1.33-.06,0,.13,1.05-.3,1.15-5.27,1.2-3.35,2.01-3.62,2.08-.55.13-1.04-1.11-1.6-1.09-4.78.17-1.15-.34-4-1.3-5.2-1.76.16,4.59-5.39,2.3-.28-.12.56-3.14-4.6-1.84,4.31,3.35-6.96,2.53-9.13,2.27-3.2-.39-3.03-2.23-3.23-2.26-2.13-.33-.59,1.59-2.26,1.29-.72-.13.47-1.2-1.96-1.32-.32-.02.2,1.37-1.28,1.3-.85-.04-.23-1.82-.65-1.91-.51-.11-4.33,3.92-9.67,3.17-4.81-.67.11-1.29-2.04-3.18-1.95,4.05-2.42.57-2.69.59-8.6.65-3.44,1.22-4.78,2.62-.36.38-9.87.68-10.39.65-.22-.01.69-2.4-.97-1.94-.69.19-.89,1.91-1,1.93-2.06.21-.92-1.37-1.62-1.3-.89.09-1.85.98-4.41,1.12-1.79.1-1.64-1.78-2.08-1.76-.26.01-1.8,2.56-4.59,2.55-.24,0-2.64-1.18-4.54-1.27-1.34-.06-2.37,1.21-2.57,1.18-1.12-.16-1.41-2.41-1.95-2.46-1.24-.11-2.25,1.98-2.59,1.95-.49-.04-.21-1.36-1.25-1.43-1.95-.12-2.9.72-3.94.67-2.21-.1-7.89-1.34-11.58-1.07-.8.06-2.03,2.03-4.01,1.85-1.97-.19-.39-1.72-1.3-1.96-1.64-.42-1.5,2.51-1.63,2.58-1.26.59-2.2-1.81-3.01-1.89-1.23-.12-1.79,1.7-2.5,1.73-.43.02-.97-1.2-1.94-1.15-.67.04-.2,1.3-.35,1.3-1.17.06-.5-1.29-.65-1.28-2.33.12-.79,1.19-1.62,1.28-.25.03-4.61-1.31-4.86-1.28-.38.04-3.1,2.33-6.84,2.56-2.96.18-8.62-1.25-11.05-1.28-.75,0,.47,1.29-1.29,1.3-.66,0-.01-1.33-.66-1.32-1.74.03-.11,1.25-2.6,1.32-.33,0,.17-1.42-1.29-1.32-.53.04-.28,1.62-1.57,1.67-2.98.12-7.65.93-7.2-2.3-.7,5.71-1.48,1.89-1.72,1.91-1.63.13-6.06,1.35-6.39,1.35-.15,0-1.44-2.4-2.29-1.97-.09.05.26,1.84-.4,2.02-1,.29-5.94,1.01-7.14,1.14-3.52.38-9.44-.15-12.94.11-28.27,2.11-56.34,3.09-85.15,3.8-1.52.04-.78,3.43-2.89-.61,1.27,4.12-5.31-1.64-1.96,2.58-.61,0-4.78-1.29-5.18-1.28-.15,0,.18,1.8-2.24,1.97-.3.02-4.1-4.08-2.33,1.25l-2.93-2.56v1.29c-1.9-1.23-6.44,1.24-7.17,1.25-.22,0-3.21-4.12-1.61-.28-3.83.81-1.18-1.47-2.9-1.62-.14-.01-1.55,1.22-2.27,1.29-.14.01.5-1.38-.65-1.29-.16.01.38,1.58-.34,1.94-1.31.65-.89-1.31-.97-1.3-1.5.21-5.29,2.34-8.43.65l1.29,1.28c-2.9,1.55-1.95-1.29-2.26-1.27-1.9.13-9.26,2.91-11.74,3.21-.42.05-.04-1.35-.61-1.29-2.21.27-8.55,3.34-12.07,2.3-.58-.17-9.41-6.8-9.68-7.34-1.49-3-.73-16.95,1.68-19.44s10.85-3.77,9.35-6.54c2.15,1.47,4.31,1.82,3.9-1.94,2.57,4.64,3.63-.98,1.73-4.32-.2-.36-4.69-3.71-4.93-4.5-1.12-3.73.69-9.78.94-13.5.23-3.31-2.2-3.27.32-8.84,3.59-7.95,12.21-6.58,19.73-6.32.64.02.85,1.93,1.37,1.94.58,0,.2-1.2.64-1.2,2.32.03,6.32,1,7.82.98.64-.01,1.33-1.54,2.01-1.56,2.04-.06,3.69.06,6.04-.07.22-.01-.43,1.25.7,1.2.06,0-.23-1.16.3-1.19,3.43-.17,4.67-.95,7.18.55l-.33-1.29c3.01,2.82,6.83-.45,7.5-.49,3.62-.21,7.88.88,11.03.87.73,0,2.53-1.01,4.57.24l-.35-1.27c3.53,1.95,4.9-.61,5.21-.64.43-.04,3.63,3.69,3.56-1.31,1.46,4.18,6.79-.34,9.42.02l-1.29,1.28c4.8-2.52.73-.04,2.6,0,2.29.05.8-1.29,1.62-1.3.23,0,.03,1.33,2.59,1.31.93,0-1.34-1.27.66-1.3.58,0,.2,1.35.69,1.34,1.27-.03,4.69-1.46,6.13-1.34.18.02-.36,1.98.33,1.96.16,0,.59-1.51,2.7-1.64,6.32-.4,12.51-1.21,18.67-1.58,4.8-.29,12.7-.77,18.94-1.28.15-.01-.11,1.41,2.59,1.11.49-.05.03-1.07.63-1.15.69-.1-.04,1.44.64,1.3.61-.13,5.15-1.8,4.89-3.22,1.09,5.76,1.73-.67,2.27-.64.45.02-.78,2.1.65,2.56,1.73.55.52-2.16,1.29-1.94.72.21.16,1.93.33,1.94,1.13.06.33-1.33,1.05-1.33,2.22.02,3.43.11,5.79,0,1.45-.07.67,1.38,1.28,1.35.16,0-.3-.37,2.27-.66.14-.02-.83-1.2.33-1.92.1-.06-.1,2.53,1.3,1.92.8-.35-.14-1.9.65-1.95.67-.04,1.96,3.92,3.26.03v1.92c.91-2.68,9.77-2.09,11.36-.65-2.15-4.95,5.05,1.47,4.86-1.21,9.45-1.7,18.79-.59,28.63-1.02,1.81-.08,1.39-1.56,1.93-1.65.26-.04,2.11,4.27,2.28-1.28.99,3.76,4.41,4.82,2.6,0,1.33-.23.13,1.94.97,1.94.84,0-.37-2.17.97-1.94l.02,2.58c2.29-.77,2.01-4.65,3.25-.65,1.06-4.08,2.14.25,3.88.01.2-.03-.38-1.86.33-1.94.26-.03,4.23,2.55,4.56,2.56.37.01-.28-1.91.65-1.92.26,0,2.18,3.37,3.9-.65l.32,1.93,1.31-1.93c1.34,4.15,3,.08,3.26.01,2.13-.52.68,1.56,1.93,1.27.1-.02-.11-1.9.02-1.94,2.41-.77,4.16,3.75,7.13,0l-.95,1.94c5.63-2.65,2.65-.19,3.88,0,1.51.23-.64-3.41,1.63-2.59-.45,4.62,2.66-2.09,3.89,2.59-1.71-4.15,1.5-2.44,4.22-1.28v-1.29c2.96,1.59,1.52-.34,4.24,1.27l-.32-1.3c1.67,1.48,5.47-.62,5.84-.62.4,0-.44,2.02.95,1.91.76-.06.57-1.9.67-1.91,2.86-.26,6.21.76,8.06.65.66-.04.7-1.71,1.37-1.94,1.82-.64.4,2.45,1.29,2.58.27.04,2.05-1.9,4.88-2.32,2.42-.36,5.2.43,6.17.37.66-.04.88-1.89.98-1.92.99-.28.85,1.87,1.6,1.92.36.02,1.58-1.37,2.27-1.28.13.02.28,2.33,1.63,1.93.9-.26.35-3.56,3.54-2.56.88.28-1.63,3.77,1.99-.03-.04,4.54.64-1.08,3.58-.01,1.01.36-1.08,3.89,4.55-.62-2.56,5.65,2.85.62,3.24.63.75.03-.43,2.77,1.61,1.94.44-.18.52-4.34,2.61,0-.43-2.28.87-1.9,2.6-2.58-2.86,5.69.71.77.98.66.26-.11,3.11,3.84.33-1.95,1.96,1.58,3.56,4.11,4.53.65.38,7.05,1.85-4.38,3.25,2.58l.02-3.22,1.62,2.57c1.43-4.74,2.11-.13,2.27.02.92.81.56-5,2.58,0,.6-6.81,2.78,5.62,3.91-2.58l1.3,1.94c1.32.21.07-1.69,1-1.98.65-.21,2.04.21,2.89.06-1.54,2.15.6,1.42,1.62,0l-.33,1.93,1.31-1.93.64,1.94c2.54.51.35-1.84.65-1.94.69-.23,5,.71,6.5.64.45,1.26.47.01.65,0,3.8-.24,7.57-1.06,11.39-.02l-.34-1.27c1.67,1.2,8.34-1.47,8.75-1.3,1.28.53.38,2.59,1.63,2.58.07,0-.19-1.26.44-1.29,4.35-.21,7.99-1.54,10.96-1.78,1.66-.14,7.08,1.68,8.75,1.14.22-.07-.38-1.97.33-1.95.82.02-1.24,2.45,3.19,1.79.94-.14.82-1.79,1.36-1.79.61,0,.04,1.22.74,1.24,2.85.05,3.67-.4,5.79-.58.48-.04-.41,1.64,1.59,1.29.34-.06-.78-3.8,5.2-1.93.42.13-1.71,2.31.32,1.93l1.97-2.58.32,2.57c2.39-.22,2.03-5.51,3.26,0,.96-2.53,3.05-3.37,2.26-.01,1.09-.43.77-2.33.99-2.57,1.24-1.33,1.12,2.29,2.59,1.29l-.64-2.57c.67.53,1.21.84,1.94,1.29.11.07.27,3.06.65,0ZM824.07,10.46h-1.29v.63h1.29v-.63ZM558.94,11.11h-1.29v.63h1.29v-.63ZM599.23,11.11h-1.29v.63h1.29v-.63ZM602.16,11.1v.65l.32-.32-.32-.32ZM609.95,11.1v.65l.32-.32-.32-.32ZM611.9,11.1v.65l.32-.32-.32-.32ZM613.2,11.1v.65l.32-.32-.32-.32ZM622.62,11.11h-1.29v.63h1.29v-.63ZM632.7,11.1v.65l.32-.32-.32-.32ZM634,11.1v.65l.32-.32-.32-.32ZM656.74,11.1v.65l.32-.32-.32-.32ZM697.68,11.1v.65l.32-.32-.32-.32ZM710.03,11.1v.65l.32-.32-.32-.32ZM528.73,11.75v.65l.32-.32-.32-.32ZM530.68,11.75v.65l.32-.32-.32-.32ZM556.99,11.75h-1.29v.63h1.29v-.63ZM576.16,11.75v.65l.32-.32-.32-.32ZM582.01,11.75v.65l.32-.32-.32-.32ZM583.31,11.75v.65l.32-.32-.32-.32ZM591.76,11.75v.65l.32-.32-.32-.32ZM488.1,13.68v-1.28h-.63v1.28h.63ZM518.33,12.39v.65l.32-.32-.32-.32ZM533.92,12.39v.65l.32-.32-.32-.32ZM472.19,13.04v.65l.32-.32-.32-.32ZM481.29,13.04v.65l.32-.32-.32-.32ZM499.48,13.04v.65l.32-.32-.32-.32ZM435.47,14.97c1.14-1.49-1.24-1.44-1.29-.31-.03.57,1.25.37,1.29.31ZM978.72,14.97v-1.28h-.63v1.28h.63ZM1038.51,14.97v-1.28h-.63v1.28h.63ZM437.1,14.33v.65l.32-.32-.32-.32ZM1063.21,14.34h-1.29v.63h1.29v-.63ZM393.23,17.56v-1.28h-.63v1.28h.63ZM397.78,17.56v-1.28h-.63v1.28h.63ZM409.16,16.27v.65l.32-.32-.32-.32ZM366.27,16.92v.65l.32-.32-.32-.32ZM374.72,16.92v.65l.32-.32-.32-.32ZM1538.23,17.57c-.12-.11-2.3-.75-2.59-.65-2.16.72,4.85,2.79,2.59.65ZM377.32,17.56v.65l.32-.32-.32-.32ZM1545.38,17.57h-1.29v.63h1.29v-.63ZM1550.26,18.21v.65l.32-.32-.32-.32ZM1580.15,18.21v.65l.32-.32-.32-.32ZM1590.22,19.49c.53-.9-2.05-1.59-1.95-.31.05.56,1.9.4,1.95.31ZM331.18,19.5v.65l.32-.32-.32-.32ZM293.49,21.44v.65l.32-.32-.32-.32ZM294.79,21.44v.65l.32-.32-.32-.32ZM278.21,22.74h-1.29v.63h1.29v-.63ZM218.76,26.61v.65l.32-.32-.32-.32ZM197.31,27.25v.65l.32-.32-.32-.32ZM136.88,31.78v.65l.32-.32-.32-.32ZM121.28,32.42v.65l.32-.32-.32-.32ZM392.91,82.83v.65l.32-.32-.32-.32ZM409.81,82.83v.65l.32-.32-.32-.32ZM411.76,82.83v.65l.32-.32-.32-.32ZM315.25,86.7v-1.28h-.63v1.28h.63ZM365.94,87.35v-1.28h-.63v1.28h.63ZM395.83,87.99c.08-.12.06-1.84,0-1.93-.84-1.15-.76,3.08,0,1.93ZM306.15,87.99v-1.28h-.63v1.28h.63ZM379.26,86.71v.65l.32-.32-.32-.32ZM647.31,88.64c.08-.12.06-1.84,0-1.93-.84-1.15-.76,3.08,0,1.93ZM322.73,87.35v.65l.32-.32-.32-.32ZM434.5,87.35v.65l.32-.32-.32-.32ZM494.28,87.35v.65l.32-.32-.32-.32ZM630.42,88.64v-1.28h-.63v1.28h.63ZM312.98,88v.65l.32-.32-.32-.32ZM314.93,88v.65l.32-.32-.32-.32ZM648.94,88v.65l.32-.32-.32-.32ZM785.41,88v.65l.32-.32-.32-.32ZM1676.98,88v.65l.32-.32-.32-.32ZM334.43,88.64v.65l.32-.32-.32-.32ZM345.47,88.64v.65l.32-.32-.32-.32ZM452.37,88.65h-1.29v.63h1.29v-.63ZM535.87,88.64v.65l.32-.32-.32-.32ZM681.44,88.64v.65l.32-.32-.32-.32ZM705.48,88.64v.65l.32-.32-.32-.32ZM744.47,88.64v.65l.32-.32-.32-.32ZM828.3,89.29v.65l.32-.32-.32-.32ZM862.74,89.94v.65l.32-.32-.32-.32ZM895.88,89.94v.65l.32-.32-.32-.32ZM861.76,91.87c1.14-1.49-1.24-1.44-1.29-.31-.03.57,1.25.37,1.29.31ZM946.23,91.87v-1.28h-.63v1.28h.63ZM964.76,90.58v.65l.32-.32-.32-.32ZM996.92,91.87v-1.28h-.63v1.28h.63ZM759.09,91.24h-1.29v.63h1.29v-.63ZM835.12,91.24c-.04-.06-1.37-.26-1.3.32-.13,1.28.15,1.26.98.31.24-.15.46-.43.32-.64ZM865.66,92.51c.53-.9-2.05-1.59-1.95-.31.05.56,1.9.4,1.95.31ZM982.62,92.52v-1.28h-.63v1.28h.63ZM811.4,91.88v.65l.32-.32-.32-.32ZM873.45,93.16v-1.28h-.63v1.28h.63ZM1017.24,92.51c0-.44-.36-.8-.8-.8s-.8.36-.8.8.36.8.8.8.8-.36.8-.8ZM1022.91,93.16v-1.28h-.63v1.28h.63ZM968.66,93.17v.65l.32-.32-.32-.32ZM1073.28,93.17v.65l.32-.32-.32-.32ZM1088.55,93.18h-1.29v.63h1.29v-.63ZM1279.28,95.11v.65l.32-.32-.32-.32ZM1880.04,95.76c-1.33-1.35-4.4.33-3.24,1.28.13.11,3.35-.65,3.24-1.28ZM1882.97,95.75v.65l.32-.32-.32-.32ZM54.67,102.86v-1.28h-.63v1.28h.63Z"/>
      <path d="M1195.77,2.05c-.88,1.13-3.08-1.05-1.94-1.93.76-.59,2.53,1.17,1.94,1.93Z"/>
      <path d="M1749.43,93.16c-.64-.1-2.38.18-2.59,0-1.37-1.13,2.11-2.29,2.59,0Z"/>
      <path d="M1078.8,93.82c.07.07.07,1.86,0,1.93-1.72,1.72-1.72-3.65,0-1.93Z"/>
      <path d="M1152.88,95.76c.39.6-.48,1.86-1.29,1.93-.59-1.08.57-3.03,1.29-1.93Z"/>
      <path d="M1509.64,94.46c1.11.71-.86,1.87-1.95,1.28.07-.81,1.34-1.67,1.95-1.28Z"/>
      <path d="M487.46,89.94c.08.06.25,1.93-.32,1.93-1.26.01-1.26-3.26.32-1.93Z"/>
      <path d="M1063.21,93.82c.53.9-2.05,1.59-1.95.31.05-.56,1.9-.4,1.95-.31Z"/>
      <ellipse cx="455.63" cy="11.73" rx=".8" ry=".8"/>
      <ellipse cx="914.41" cy="91.86" rx=".8" ry=".8"/>
      <ellipse cx="555.06" cy="90.57" rx=".8" ry=".8"/>
      <path d="M343.2,90.58c-.04.05-1.32.25-1.29-.31.05-1.13,2.43-1.17,1.29.31Z"/>
      <path d="M407.52,91.22c-.76,1.15-.84-3.08,0-1.93.06.09.08,1.81,0,1.93Z"/>
      <path d="M1194.47,98.35c1.16.76-3.1.84-1.94,0,.09-.06,1.82-.08,1.94,0Z"/>
      <path d="M551.14,91.87c-.76,1.15-.84-3.08,0-1.93.06.09.08,1.81,0,1.93Z"/>
      <path d="M1392.02,97.68c-1.05,1.24-2.18-1.97-.65-.97.27.27.86.71.65.97Z"/>
      <path d="M1601.26,93.81c-.76,1.15-.84-3.08,0-1.93.06.09.08,1.81,0,1.93Z"/>
      <path d="M1830.01,97.04c-.04.05-1.32.25-1.29-.31.05-1.13,2.43-1.17,1.29.31Z"/>
      <path d="M1117.14,94.46c1.14,1.49-1.24,1.44-1.29.31-.03-.57,1.25-.37,1.29-.31Z"/>
      <path d="M1429.06,95.1c-1.05,1.24-2.18-1.97-.65-.97.27.27.86.71.65.97Z"/>
      <rect x="989.79" y="94.46" width=".63" height="1.28"/>
      <rect x="438.08" y="11.11" width="1.29" height=".63"/>
      <rect x="1605.83" y="92.53" width=".63" height="1.28"/>
      <rect x="1589.58" y="92.53" width=".63" height="1.28"/>
      <rect x="850.72" y="92.53" width=".63" height="1.28"/>
      <rect x="1102.21" y="13.04" width=".63" height="1.28"/>
      <rect x="783.14" y="92.53" width=".63" height="1.28"/>
      <rect x="1304.31" y="96.4" width=".63" height="1.28"/>
      <rect x="1382.29" y="96.4" width=".63" height="1.28"/>
      <rect x="675.27" y="91.88" width=".63" height="1.28"/>
      <rect x="1117.8" y="97.05" width="1.29" height=".63"/>
      <rect x="1475.86" y="16.27" width=".63" height="1.28"/>
      <rect x="1032.03" y="11.1" width=".63" height="1.28"/>
      <rect x="967.69" y="11.11" width="1.29" height=".63"/>
      <rect x="1148.35" y="97.69" width=".63" height="1.28"/>
      <rect x="952.1" y="11.1" width=".63" height="1.28"/>
      <rect x="1236.72" y="97.69" width=".63" height="1.28"/>
      <rect x="545.95" y="90.59" width=".63" height="1.28"/>
      <rect x="1372.53" y="97.7" width="1.29" height=".63"/>
      <rect x="489.42" y="89.94" width=".63" height="1.28"/>
      <rect x="483.57" y="89.94" width=".63" height="1.28"/>
      <rect x="1616.87" y="18.21" width=".63" height="1.28"/>
      <rect x="438.73" y="89.94" width="1.29" height=".63"/>
      <rect x="1212.68" y="98.35" width="1.29" height=".63"/>
      <rect x="1347.19" y="98.35" width="1.29" height=".63"/>
      <rect x="72.23" y="32.43" width=".63" height="1.28"/>
      <polygon points="1658.13 26.61 1658.46 26.93 1658.13 27.25 1658.13 26.61"/>
      <polygon points="1665.28 26.61 1665.6 26.93 1665.28 27.25 1665.28 26.61"/>
      <polygon points="77.09 31.78 77.42 32.1 77.09 32.42 77.09 31.78"/>
      <polygon points="94.64 31.78 94.96 32.1 94.64 32.42 94.64 31.78"/>
      <polygon points="170.02 26.61 170.34 26.93 170.02 27.25 170.02 26.61"/>
      <polygon points="84.24 32.42 84.57 32.75 84.24 33.07 84.24 32.42"/>
      <polygon points="168.72 26.61 169.04 26.93 168.72 27.25 168.72 26.61"/>
      <polygon points="233.7 24.02 234.03 24.35 233.7 24.67 233.7 24.02"/>
      <polygon points="268.14 21.44 268.47 21.76 268.14 22.08 268.14 21.44"/>
      <polygon points="348.07 89.29 348.4 89.61 348.07 89.94 348.07 89.29"/>
      <polygon points="1565.85 16.27 1566.18 16.59 1565.85 16.92 1565.85 16.27"/>
      <polygon points="1562.61 16.27 1562.93 16.59 1562.61 16.92 1562.61 16.27"/>
      <polygon points="1290.98 16.27 1291.3 16.59 1290.98 16.92 1290.98 16.27"/>
      <polygon points="785.41 91.88 785.73 92.2 785.41 92.52 785.41 91.88"/>
      <polygon points="346.77 16.27 347.1 16.59 346.77 16.92 346.77 16.27"/>
      <polygon points="1671.78 91.88 1672.1 92.2 1671.78 92.52 1671.78 91.88"/>
      <polygon points="984.91 13.04 985.23 13.36 984.91 13.68 984.91 13.04"/>
      <polygon points="1738.71 92.52 1739.03 92.84 1738.71 93.17 1738.71 92.52"/>
      <polygon points="1044.04 93.17 1044.37 93.49 1044.04 93.81 1044.04 93.17"/>
      <polygon points="1495.02 93.17 1495.35 93.49 1495.02 93.81 1495.02 93.17"/>
      <polygon points="1046.64 93.81 1046.97 94.14 1046.64 94.46 1046.64 93.81"/>
      <polygon points="1008.3 94.46 1008.63 94.78 1008.3 95.11 1008.3 94.46"/>
      <polygon points="1112.27 95.11 1112.6 95.43 1112.27 95.75 1112.27 95.11"/>
      <polygon points="1045.99 95.75 1046.32 96.08 1045.99 96.4 1045.99 95.75"/>
      <polygon points="524.83 10.45 525.15 10.78 524.83 11.1 524.83 10.45"/>
      <polygon points="1034.29 11.1 1034.62 11.42 1034.29 11.75 1034.29 11.1"/>
      <polygon points="955.66 11.1 955.99 11.42 955.66 11.75 955.66 11.1"/>
      <polygon points="1164.91 98.34 1165.23 98.66 1164.91 98.98 1164.91 98.34"/>
      <polygon points="1199.35 98.34 1199.68 98.66 1199.35 98.98 1199.35 98.34"/>
      <polygon points="1235.74 98.34 1236.07 98.66 1235.74 98.98 1235.74 98.34"/>
      <polygon points="77.74 100.92 78.07 101.25 77.74 101.57 77.74 100.92"/>
      <polygon points="1797.84 31.78 1798.17 32.1 1797.84 32.42 1797.84 31.78"/>
    </g>
  </g>
</svg>